# xmcd CD database file
#
# Track frame offsets:
#	150
#	18337
#	35112
#
# Disc length: 686 seconds
#
# Revision: 0
# Processed by: cddbd v1.5.1PL0 Copyright (c) Steve Scherf et al.
# Submitted via: CDex 1.51
#
DISCID=1e02ac03
DTITLE=After me - いつもと同じ朝がくる
DYEAR=1997
DGENRE=J-POP
TTITLE0=いつもと同じ朝がくる
TTITLE1=ありふれた風景
TTITLE2=真実に気付くのは
EXTD=YEAR: 1997
EXTT0=
EXTT1=
EXTT2=
PLAYORDER=
